<?xml version="1.0" encoding="UTF-8"?>
<svg xmlns="http://www.w3.org/2000/svg" xmlns:xlink="http://www.w3.org/1999/xlink" width="80pt" height="113pt" viewBox="0 0 80 113" version="1.1">
<g id="surface1">
<path style="fill:none;stroke-width:0.7087;stroke-linecap:round;stroke-linejoin:round;stroke:rgb(0%,0%,0%);stroke-opacity:1;stroke-miterlimit:10;" d="M 155.635498 302.186256 C 168.970703 350.037749 205.548096 387.934735 252.875 402.982923 " transform="matrix(0.134454,0,0,0.134204,0,0)"/>
<path style="fill:none;stroke-width:0.7087;stroke-linecap:round;stroke-linejoin:round;stroke:rgb(0%,0%,0%);stroke-opacity:1;stroke-miterlimit:10;" d="M 342.125 402.982923 C 389.451904 387.934735 426.029297 350.037749 439.364502 302.186256 " transform="matrix(0.134454,0,0,0.134204,0,0)"/>
<path style="fill:none;stroke-width:0.7087;stroke-linecap:round;stroke-linejoin:round;stroke:rgb(0%,0%,0%);stroke-opacity:1;stroke-miterlimit:10;" d="M 444.768311 262.630185 C 444.768311 181.276825 378.847656 115.350041 297.5 115.350041 C 216.152344 115.350041 150.231689 181.276825 150.231689 262.630185 " transform="matrix(0.134454,0,0,0.134204,0,0)"/>
<path style="fill:none;stroke-width:0.7087;stroke-linecap:round;stroke-linejoin:round;stroke:rgb(0%,0%,0%);stroke-opacity:1;stroke-miterlimit:10;" d="M 150.231689 262.630185 C 150.231689 267.694759 151.016113 272.759334 152.526855 277.591054 " transform="matrix(0.134454,0,0,0.134204,0,0)"/>
<path style="fill:none;stroke-width:0.7087;stroke-linecap:round;stroke-linejoin:round;stroke:rgb(0%,0%,0%);stroke-opacity:1;stroke-miterlimit:10;" d="M 152.526855 277.591054 C 152.439697 285.915584 153.485596 294.1819 155.635498 302.186256 " transform="matrix(0.134454,0,0,0.134204,0,0)"/>
<path style="fill:none;stroke-width:0.7087;stroke-linecap:round;stroke-linejoin:round;stroke:rgb(0%,0%,0%);stroke-opacity:1;stroke-miterlimit:10;" d="M 271.555908 346.312085 C 288.813232 348.087597 306.186768 348.087597 323.444092 346.312085 " transform="matrix(0.134454,0,0,0.134204,0,0)"/>
<path style="fill:none;stroke-width:0.7087;stroke-linecap:round;stroke-linejoin:round;stroke:rgb(0%,0%,0%);stroke-opacity:1;stroke-miterlimit:10;" d="M 442.473145 277.591054 C 443.983887 272.759334 444.768311 267.694759 444.768311 262.630185 " transform="matrix(0.134454,0,0,0.134204,0,0)"/>
<path style="fill:none;stroke-width:0.7087;stroke-linecap:round;stroke-linejoin:round;stroke:rgb(0%,0%,0%);stroke-opacity:1;stroke-miterlimit:10;" d="M 439.364502 302.186256 C 441.543457 294.1819 442.589355 285.915584 442.473145 277.591054 " transform="matrix(0.134454,0,0,0.134204,0,0)"/>
<path style="fill:none;stroke-width:0.7087;stroke-linecap:round;stroke-linejoin:round;stroke:rgb(0%,0%,0%);stroke-opacity:1;stroke-miterlimit:10;" d="M 297.5 657.72518 L 297.5 726.446211 " transform="matrix(0.134454,0,0,0.134204,0,0)"/>
<path style="fill:none;stroke-width:0.7087;stroke-linecap:round;stroke-linejoin:round;stroke:rgb(0%,0%,0%);stroke-opacity:1;stroke-miterlimit:10;" d="M 297.5 657.72518 L 595.058105 485.937154 " transform="matrix(0.134454,0,0,0.134204,0,0)"/>
<path style="fill:none;stroke-width:0.7087;stroke-linecap:round;stroke-linejoin:round;stroke:rgb(0%,0%,0%);stroke-opacity:1;stroke-miterlimit:10;" d="M 595.058105 485.937154 L 595.058105 554.658186 " transform="matrix(0.134454,0,0,0.134204,0,0)"/>
<path style="fill:none;stroke-width:0.7087;stroke-linecap:round;stroke-linejoin:round;stroke:rgb(0%,0%,0%);stroke-opacity:1;stroke-miterlimit:10;" d="M 297.5 726.446211 L 595.058105 554.658186 " transform="matrix(0.134454,0,0,0.134204,0,0)"/>
<path style="fill:none;stroke-width:0.7087;stroke-linecap:round;stroke-linejoin:round;stroke:rgb(0%,0%,0%);stroke-opacity:1;stroke-miterlimit:10;" d="M -0.0581055 485.937154 L -0.0581055 554.658186 " transform="matrix(0.134454,0,0,0.134204,0,0)"/>
<path style="fill:none;stroke-width:0.7087;stroke-linecap:round;stroke-linejoin:round;stroke:rgb(0%,0%,0%);stroke-opacity:1;stroke-miterlimit:10;" d="M -0.0581055 485.937154 L 297.5 657.72518 " transform="matrix(0.134454,0,0,0.134204,0,0)"/>
<path style="fill:none;stroke-width:0.7087;stroke-linecap:round;stroke-linejoin:round;stroke:rgb(0%,0%,0%);stroke-opacity:1;stroke-miterlimit:10;" d="M -0.0581055 554.658186 L 297.5 726.446211 " transform="matrix(0.134454,0,0,0.134204,0,0)"/>
<path style="fill:none;stroke-width:0.7087;stroke-linecap:round;stroke-linejoin:round;stroke:rgb(0%,0%,0%);stroke-opacity:1;stroke-miterlimit:10;" d="M 252.875 528.898714 L 297.5 554.658186 " transform="matrix(0.134454,0,0,0.134204,0,0)"/>
<path style="fill:none;stroke-width:0.7087;stroke-linecap:round;stroke-linejoin:round;stroke:rgb(0%,0%,0%);stroke-opacity:1;stroke-miterlimit:10;" d="M 297.5 554.658186 L 342.125 528.898714 " transform="matrix(0.134454,0,0,0.134204,0,0)"/>
<path style="fill:none;stroke-width:0.7087;stroke-linecap:round;stroke-linejoin:round;stroke:rgb(0%,0%,0%);stroke-opacity:1;stroke-miterlimit:10;" d="M 416.529053 382.899267 L 396.715088 371.460315 " transform="matrix(0.134454,0,0,0.134204,0,0)"/>
<path style="fill:none;stroke-width:0.7087;stroke-linecap:round;stroke-linejoin:round;stroke:rgb(0%,0%,0%);stroke-opacity:1;stroke-miterlimit:10;" d="M 416.529053 434.418211 L 461.154053 460.177683 " transform="matrix(0.134454,0,0,0.134204,0,0)"/>
<path style="fill:none;stroke-width:0.7087;stroke-linecap:round;stroke-linejoin:round;stroke:rgb(0%,0%,0%);stroke-opacity:1;stroke-miterlimit:10;" d="M 461.154053 460.177683 L 505.779053 434.418211 " transform="matrix(0.134454,0,0,0.134204,0,0)"/>
<path style="fill:none;stroke-width:0.7087;stroke-linecap:round;stroke-linejoin:round;stroke:rgb(0%,0%,0%);stroke-opacity:1;stroke-miterlimit:10;" d="M 595.058105 485.937154 L 505.779053 434.418211 " transform="matrix(0.134454,0,0,0.134204,0,0)"/>
<path style="fill:none;stroke-width:0.7087;stroke-linecap:round;stroke-linejoin:round;stroke:rgb(0%,0%,0%);stroke-opacity:1;stroke-miterlimit:10;" d="M 89.220947 434.418211 L -0.0581055 485.937154 " transform="matrix(0.134454,0,0,0.134204,0,0)"/>
<path style="fill:none;stroke-width:0.7087;stroke-linecap:round;stroke-linejoin:round;stroke:rgb(0%,0%,0%);stroke-opacity:1;stroke-miterlimit:10;" d="M 89.220947 434.418211 L 133.845947 460.177683 " transform="matrix(0.134454,0,0,0.134204,0,0)"/>
<path style="fill:none;stroke-width:0.7087;stroke-linecap:round;stroke-linejoin:round;stroke:rgb(0%,0%,0%);stroke-opacity:1;stroke-miterlimit:10;" d="M 133.845947 460.177683 L 178.470947 434.418211 " transform="matrix(0.134454,0,0,0.134204,0,0)"/>
<path style="fill:none;stroke-width:0.7087;stroke-linecap:round;stroke-linejoin:round;stroke:rgb(0%,0%,0%);stroke-opacity:1;stroke-miterlimit:10;" d="M 198.284912 371.460315 L 178.470947 382.899267 " transform="matrix(0.134454,0,0,0.134204,0,0)"/>
<path style="fill:none;stroke-width:0.7087;stroke-linecap:round;stroke-linejoin:round;stroke:rgb(0%,0%,0%);stroke-opacity:1;stroke-miterlimit:10;" d="M 297.5 382.87016 L 342.125 357.081582 " transform="matrix(0.134454,0,0,0.134204,0,0)"/>
<path style="fill:none;stroke-width:0.7087;stroke-linecap:round;stroke-linejoin:round;stroke:rgb(0%,0%,0%);stroke-opacity:1;stroke-miterlimit:10;" d="M 252.875 357.081582 L 297.5 382.87016 " transform="matrix(0.134454,0,0,0.134204,0,0)"/>
<path style="fill:none;stroke-width:0.7087;stroke-linecap:round;stroke-linejoin:round;stroke:rgb(0%,0%,0%);stroke-opacity:1;stroke-miterlimit:10;" d="M 271.555908 346.312085 L 252.875 357.081582 " transform="matrix(0.134454,0,0,0.134204,0,0)"/>
<path style="fill:none;stroke-width:0.7087;stroke-linecap:round;stroke-linejoin:round;stroke:rgb(0%,0%,0%);stroke-opacity:1;stroke-miterlimit:10;" d="M 342.125 357.081582 L 323.444092 346.312085 " transform="matrix(0.134454,0,0,0.134204,0,0)"/>
<path style="fill:none;stroke-width:0.7087;stroke-linecap:round;stroke-linejoin:round;stroke:rgb(0%,0%,0%);stroke-opacity:1;stroke-miterlimit:10;" d="M 252.875 357.081582 L 252.875 528.898714 " transform="matrix(0.134454,0,0,0.134204,0,0)"/>
<path style="fill:none;stroke-width:0.7087;stroke-linecap:round;stroke-linejoin:round;stroke:rgb(0%,0%,0%);stroke-opacity:1;stroke-miterlimit:10;" d="M 297.5 382.87016 L 297.5 554.658186 " transform="matrix(0.134454,0,0,0.134204,0,0)"/>
<path style="fill:none;stroke-width:0.7087;stroke-linecap:round;stroke-linejoin:round;stroke:rgb(0%,0%,0%);stroke-opacity:1;stroke-miterlimit:10;" d="M 342.125 357.081582 L 342.125 528.898714 " transform="matrix(0.134454,0,0,0.134204,0,0)"/>
<path style="fill:none;stroke-width:0.7087;stroke-linecap:round;stroke-linejoin:round;stroke:rgb(0%,0%,0%);stroke-opacity:1;stroke-miterlimit:10;" d="M 461.154053 288.389657 L 461.154053 460.177683 " transform="matrix(0.134454,0,0,0.134204,0,0)"/>
<path style="fill:none;stroke-width:0.7087;stroke-linecap:round;stroke-linejoin:round;stroke:rgb(0%,0%,0%);stroke-opacity:1;stroke-miterlimit:10;" d="M 416.529053 349.368294 L 416.529053 434.418211 " transform="matrix(0.134454,0,0,0.134204,0,0)"/>
<path style="fill:none;stroke-width:0.7087;stroke-linecap:round;stroke-linejoin:round;stroke:rgb(0%,0%,0%);stroke-opacity:1;stroke-miterlimit:10;" d="M 442.473145 277.591054 L 461.154053 288.389657 " transform="matrix(0.134454,0,0,0.134204,0,0)"/>
<path style="fill:none;stroke-width:0.7087;stroke-linecap:round;stroke-linejoin:round;stroke:rgb(0%,0%,0%);stroke-opacity:1;stroke-miterlimit:10;" d="M 461.154053 288.389657 L 505.779053 262.630185 " transform="matrix(0.134454,0,0,0.134204,0,0)"/>
<path style="fill:none;stroke-width:0.7087;stroke-linecap:round;stroke-linejoin:round;stroke:rgb(0%,0%,0%);stroke-opacity:1;stroke-miterlimit:10;" d="M 461.154053 236.841607 L 443.925781 246.796114 " transform="matrix(0.134454,0,0,0.134204,0,0)"/>
<path style="fill:none;stroke-width:0.7087;stroke-linecap:round;stroke-linejoin:round;stroke:rgb(0%,0%,0%);stroke-opacity:1;stroke-miterlimit:10;" d="M 505.779053 262.630185 L 461.154053 236.841607 " transform="matrix(0.134454,0,0,0.134204,0,0)"/>
<path style="fill:none;stroke-width:0.7087;stroke-linecap:round;stroke-linejoin:round;stroke:rgb(0%,0%,0%);stroke-opacity:1;stroke-miterlimit:10;" d="M 505.779053 262.630185 L 505.779053 434.418211 " transform="matrix(0.134454,0,0,0.134204,0,0)"/>
<path style="fill:none;stroke-width:0.7087;stroke-linecap:round;stroke-linejoin:round;stroke:rgb(0%,0%,0%);stroke-opacity:1;stroke-miterlimit:10;" d="M 89.220947 262.630185 L 133.845947 288.389657 " transform="matrix(0.134454,0,0,0.134204,0,0)"/>
<path style="fill:none;stroke-width:0.7087;stroke-linecap:round;stroke-linejoin:round;stroke:rgb(0%,0%,0%);stroke-opacity:1;stroke-miterlimit:10;" d="M 151.074219 246.796114 L 133.845947 236.841607 " transform="matrix(0.134454,0,0,0.134204,0,0)"/>
<path style="fill:none;stroke-width:0.7087;stroke-linecap:round;stroke-linejoin:round;stroke:rgb(0%,0%,0%);stroke-opacity:1;stroke-miterlimit:10;" d="M 133.845947 288.389657 L 152.526855 277.591054 " transform="matrix(0.134454,0,0,0.134204,0,0)"/>
<path style="fill:none;stroke-width:0.7087;stroke-linecap:round;stroke-linejoin:round;stroke:rgb(0%,0%,0%);stroke-opacity:1;stroke-miterlimit:10;" d="M 133.845947 236.841607 L 89.220947 262.630185 " transform="matrix(0.134454,0,0,0.134204,0,0)"/>
<path style="fill:none;stroke-width:0.7087;stroke-linecap:round;stroke-linejoin:round;stroke:rgb(0%,0%,0%);stroke-opacity:1;stroke-miterlimit:10;" d="M 133.845947 288.389657 L 133.845947 460.177683 " transform="matrix(0.134454,0,0,0.134204,0,0)"/>
<path style="fill:none;stroke-width:0.7087;stroke-linecap:round;stroke-linejoin:round;stroke:rgb(0%,0%,0%);stroke-opacity:1;stroke-miterlimit:10;" d="M 89.220947 262.630185 L 89.220947 434.418211 " transform="matrix(0.134454,0,0,0.134204,0,0)"/>
<path style="fill:none;stroke-width:0.7087;stroke-linecap:round;stroke-linejoin:round;stroke:rgb(0%,0%,0%);stroke-opacity:1;stroke-miterlimit:10;" d="M 178.470947 349.368294 L 178.470947 434.418211 " transform="matrix(0.134454,0,0,0.134204,0,0)"/>
</g>
</svg>
