<?xml version="1.0" encoding="UTF-8"?>
<svg xmlns="http://www.w3.org/2000/svg" xmlns:xlink="http://www.w3.org/1999/xlink" width="120pt" height="169pt" viewBox="0 0 120 169" version="1.1">
<g id="surface1">
<path style="fill:none;stroke-width:0.7087;stroke-linecap:round;stroke-linejoin:round;stroke:rgb(0%,0%,0%);stroke-opacity:1;stroke-miterlimit:10;" d="M 155.645182 302.18505 C 168.970703 350.02242 205.538411 387.914756 252.875 402.978273 " transform="matrix(0.201681,0,0,0.200713,0,0)"/>
<path style="fill:none;stroke-width:0.7087;stroke-linecap:round;stroke-linejoin:round;stroke:rgb(0%,0%,0%);stroke-opacity:1;stroke-miterlimit:10;" d="M 342.125 402.978273 C 389.461589 387.914756 426.029297 350.02242 439.354818 302.18505 " transform="matrix(0.201681,0,0,0.200713,0,0)"/>
<path style="fill:none;stroke-width:0.7087;stroke-linecap:round;stroke-linejoin:round;stroke:rgb(0%,0%,0%);stroke-opacity:1;stroke-miterlimit:10;" d="M 444.777995 262.61899 C 444.777995 181.287676 378.847656 115.331268 297.5 115.331268 C 216.152344 115.331268 150.222005 181.287676 150.222005 262.61899 " transform="matrix(0.201681,0,0,0.200713,0,0)"/>
<path style="fill:none;stroke-width:0.7087;stroke-linecap:round;stroke-linejoin:round;stroke:rgb(0%,0%,0%);stroke-opacity:1;stroke-miterlimit:10;" d="M 150.222005 262.61899 C 150.222005 267.698548 151.016113 272.758645 152.526855 277.60466 " transform="matrix(0.201681,0,0,0.200713,0,0)"/>
<path style="fill:none;stroke-width:0.7087;stroke-linecap:round;stroke-linejoin:round;stroke:rgb(0%,0%,0%);stroke-opacity:1;stroke-miterlimit:10;" d="M 152.526855 277.60466 C 152.430013 285.895433 153.475911 294.166744 155.645182 302.18505 " transform="matrix(0.201681,0,0,0.200713,0,0)"/>
<path style="fill:none;stroke-width:0.7087;stroke-linecap:round;stroke-linejoin:round;stroke:rgb(0%,0%,0%);stroke-opacity:1;stroke-miterlimit:10;" d="M 271.546224 346.305196 C 288.803548 348.095692 306.196452 348.095692 323.453776 346.305196 " transform="matrix(0.201681,0,0,0.200713,0,0)"/>
<path style="fill:none;stroke-width:0.7087;stroke-linecap:round;stroke-linejoin:round;stroke:rgb(0%,0%,0%);stroke-opacity:1;stroke-miterlimit:10;" d="M 442.473145 277.60466 C 444.003255 272.758645 444.777995 267.698548 444.777995 262.61899 " transform="matrix(0.201681,0,0,0.200713,0,0)"/>
<path style="fill:none;stroke-width:0.7087;stroke-linecap:round;stroke-linejoin:round;stroke:rgb(0%,0%,0%);stroke-opacity:1;stroke-miterlimit:10;" d="M 439.354818 302.18505 C 441.524089 294.186206 442.589355 285.895433 442.473145 277.60466 " transform="matrix(0.201681,0,0,0.200713,0,0)"/>
<path style="fill:none;stroke-width:0.7087;stroke-linecap:round;stroke-linejoin:round;stroke:rgb(0%,0%,0%);stroke-opacity:1;stroke-miterlimit:10;" d="M 297.5 657.71519 L 297.5 726.435189 " transform="matrix(0.201681,0,0,0.200713,0,0)"/>
<path style="fill:none;stroke-width:0.7087;stroke-linecap:round;stroke-linejoin:round;stroke:rgb(0%,0%,0%);stroke-opacity:1;stroke-miterlimit:10;" d="M 297.5 657.71519 L 595.058105 485.944388 " transform="matrix(0.201681,0,0,0.200713,0,0)"/>
<path style="fill:none;stroke-width:0.7087;stroke-linecap:round;stroke-linejoin:round;stroke:rgb(0%,0%,0%);stroke-opacity:1;stroke-miterlimit:10;" d="M 595.058105 485.944388 L 595.058105 554.664386 " transform="matrix(0.201681,0,0,0.200713,0,0)"/>
<path style="fill:none;stroke-width:0.7087;stroke-linecap:round;stroke-linejoin:round;stroke:rgb(0%,0%,0%);stroke-opacity:1;stroke-miterlimit:10;" d="M 297.5 726.435189 L 595.058105 554.664386 " transform="matrix(0.201681,0,0,0.200713,0,0)"/>
<path style="fill:none;stroke-width:0.7087;stroke-linecap:round;stroke-linejoin:round;stroke:rgb(0%,0%,0%);stroke-opacity:1;stroke-miterlimit:10;" d="M -0.0581055 485.944388 L -0.0581055 554.664386 " transform="matrix(0.201681,0,0,0.200713,0,0)"/>
<path style="fill:none;stroke-width:0.7087;stroke-linecap:round;stroke-linejoin:round;stroke:rgb(0%,0%,0%);stroke-opacity:1;stroke-miterlimit:10;" d="M -0.0581055 485.944388 L 297.5 657.71519 " transform="matrix(0.201681,0,0,0.200713,0,0)"/>
<path style="fill:none;stroke-width:0.7087;stroke-linecap:round;stroke-linejoin:round;stroke:rgb(0%,0%,0%);stroke-opacity:1;stroke-miterlimit:10;" d="M -0.0581055 554.664386 L 297.5 726.435189 " transform="matrix(0.201681,0,0,0.200713,0,0)"/>
<path style="fill:none;stroke-width:0.7087;stroke-linecap:round;stroke-linejoin:round;stroke:rgb(0%,0%,0%);stroke-opacity:1;stroke-miterlimit:10;" d="M 252.875 528.89682 L 297.5 554.664386 " transform="matrix(0.201681,0,0,0.200713,0,0)"/>
<path style="fill:none;stroke-width:0.7087;stroke-linecap:round;stroke-linejoin:round;stroke:rgb(0%,0%,0%);stroke-opacity:1;stroke-miterlimit:10;" d="M 297.5 554.664386 L 342.125 528.89682 " transform="matrix(0.201681,0,0,0.200713,0,0)"/>
<path style="fill:none;stroke-width:0.7087;stroke-linecap:round;stroke-linejoin:round;stroke:rgb(0%,0%,0%);stroke-opacity:1;stroke-miterlimit:10;" d="M 416.519368 382.893584 L 396.724772 371.449982 " transform="matrix(0.201681,0,0,0.200713,0,0)"/>
<path style="fill:none;stroke-width:0.7087;stroke-linecap:round;stroke-linejoin:round;stroke:rgb(0%,0%,0%);stroke-opacity:1;stroke-miterlimit:10;" d="M 416.519368 434.409255 L 461.144368 460.176821 " transform="matrix(0.201681,0,0,0.200713,0,0)"/>
<path style="fill:none;stroke-width:0.7087;stroke-linecap:round;stroke-linejoin:round;stroke:rgb(0%,0%,0%);stroke-opacity:1;stroke-miterlimit:10;" d="M 461.144368 460.176821 L 505.788737 434.409255 " transform="matrix(0.201681,0,0,0.200713,0,0)"/>
<path style="fill:none;stroke-width:0.7087;stroke-linecap:round;stroke-linejoin:round;stroke:rgb(0%,0%,0%);stroke-opacity:1;stroke-miterlimit:10;" d="M 595.058105 485.944388 L 505.788737 434.409255 " transform="matrix(0.201681,0,0,0.200713,0,0)"/>
<path style="fill:none;stroke-width:0.7087;stroke-linecap:round;stroke-linejoin:round;stroke:rgb(0%,0%,0%);stroke-opacity:1;stroke-miterlimit:10;" d="M 89.211263 434.409255 L -0.0581055 485.944388 " transform="matrix(0.201681,0,0,0.200713,0,0)"/>
<path style="fill:none;stroke-width:0.7087;stroke-linecap:round;stroke-linejoin:round;stroke:rgb(0%,0%,0%);stroke-opacity:1;stroke-miterlimit:10;" d="M 89.211263 434.409255 L 133.855632 460.176821 " transform="matrix(0.201681,0,0,0.200713,0,0)"/>
<path style="fill:none;stroke-width:0.7087;stroke-linecap:round;stroke-linejoin:round;stroke:rgb(0%,0%,0%);stroke-opacity:1;stroke-miterlimit:10;" d="M 133.855632 460.176821 L 178.480632 434.409255 " transform="matrix(0.201681,0,0,0.200713,0,0)"/>
<path style="fill:none;stroke-width:0.7087;stroke-linecap:round;stroke-linejoin:round;stroke:rgb(0%,0%,0%);stroke-opacity:1;stroke-miterlimit:10;" d="M 198.275228 371.449982 L 178.480632 382.893584 " transform="matrix(0.201681,0,0,0.200713,0,0)"/>
<path style="fill:none;stroke-width:0.7087;stroke-linecap:round;stroke-linejoin:round;stroke:rgb(0%,0%,0%);stroke-opacity:1;stroke-miterlimit:10;" d="M 297.5 382.85466 L 342.125 357.087093 " transform="matrix(0.201681,0,0,0.200713,0,0)"/>
<path style="fill:none;stroke-width:0.7087;stroke-linecap:round;stroke-linejoin:round;stroke:rgb(0%,0%,0%);stroke-opacity:1;stroke-miterlimit:10;" d="M 252.875 357.087093 L 297.5 382.85466 " transform="matrix(0.201681,0,0,0.200713,0,0)"/>
<path style="fill:none;stroke-width:0.7087;stroke-linecap:round;stroke-linejoin:round;stroke:rgb(0%,0%,0%);stroke-opacity:1;stroke-miterlimit:10;" d="M 271.546224 346.305196 L 252.875 357.087093 " transform="matrix(0.201681,0,0,0.200713,0,0)"/>
<path style="fill:none;stroke-width:0.7087;stroke-linecap:round;stroke-linejoin:round;stroke:rgb(0%,0%,0%);stroke-opacity:1;stroke-miterlimit:10;" d="M 342.125 357.087093 L 323.453776 346.305196 " transform="matrix(0.201681,0,0,0.200713,0,0)"/>
<path style="fill:none;stroke-width:0.7087;stroke-linecap:round;stroke-linejoin:round;stroke:rgb(0%,0%,0%);stroke-opacity:1;stroke-miterlimit:10;" d="M 252.875 357.087093 L 252.875 528.89682 " transform="matrix(0.201681,0,0,0.200713,0,0)"/>
<path style="fill:none;stroke-width:0.7087;stroke-linecap:round;stroke-linejoin:round;stroke:rgb(0%,0%,0%);stroke-opacity:1;stroke-miterlimit:10;" d="M 297.5 382.85466 L 297.5 554.664386 " transform="matrix(0.201681,0,0,0.200713,0,0)"/>
<path style="fill:none;stroke-width:0.7087;stroke-linecap:round;stroke-linejoin:round;stroke:rgb(0%,0%,0%);stroke-opacity:1;stroke-miterlimit:10;" d="M 342.125 357.087093 L 342.125 528.89682 " transform="matrix(0.201681,0,0,0.200713,0,0)"/>
<path style="fill:none;stroke-width:0.7087;stroke-linecap:round;stroke-linejoin:round;stroke:rgb(0%,0%,0%);stroke-opacity:1;stroke-miterlimit:10;" d="M 461.144368 288.386557 L 461.144368 460.176821 " transform="matrix(0.201681,0,0,0.200713,0,0)"/>
<path style="fill:none;stroke-width:0.7087;stroke-linecap:round;stroke-linejoin:round;stroke:rgb(0%,0%,0%);stroke-opacity:1;stroke-miterlimit:10;" d="M 416.519368 349.360716 L 416.519368 434.409255 " transform="matrix(0.201681,0,0,0.200713,0,0)"/>
<path style="fill:none;stroke-width:0.7087;stroke-linecap:round;stroke-linejoin:round;stroke:rgb(0%,0%,0%);stroke-opacity:1;stroke-miterlimit:10;" d="M 442.473145 277.60466 L 461.144368 288.386557 " transform="matrix(0.201681,0,0,0.200713,0,0)"/>
<path style="fill:none;stroke-width:0.7087;stroke-linecap:round;stroke-linejoin:round;stroke:rgb(0%,0%,0%);stroke-opacity:1;stroke-miterlimit:10;" d="M 461.144368 288.386557 L 505.788737 262.61899 " transform="matrix(0.201681,0,0,0.200713,0,0)"/>
<path style="fill:none;stroke-width:0.7087;stroke-linecap:round;stroke-linejoin:round;stroke:rgb(0%,0%,0%);stroke-opacity:1;stroke-miterlimit:10;" d="M 461.144368 236.851424 L 443.925781 246.796459 " transform="matrix(0.201681,0,0,0.200713,0,0)"/>
<path style="fill:none;stroke-width:0.7087;stroke-linecap:round;stroke-linejoin:round;stroke:rgb(0%,0%,0%);stroke-opacity:1;stroke-miterlimit:10;" d="M 505.788737 262.61899 L 461.144368 236.851424 " transform="matrix(0.201681,0,0,0.200713,0,0)"/>
<path style="fill:none;stroke-width:0.7087;stroke-linecap:round;stroke-linejoin:round;stroke:rgb(0%,0%,0%);stroke-opacity:1;stroke-miterlimit:10;" d="M 505.788737 262.61899 L 505.788737 434.409255 " transform="matrix(0.201681,0,0,0.200713,0,0)"/>
<path style="fill:none;stroke-width:0.7087;stroke-linecap:round;stroke-linejoin:round;stroke:rgb(0%,0%,0%);stroke-opacity:1;stroke-miterlimit:10;" d="M 89.211263 262.61899 L 133.855632 288.386557 " transform="matrix(0.201681,0,0,0.200713,0,0)"/>
<path style="fill:none;stroke-width:0.7087;stroke-linecap:round;stroke-linejoin:round;stroke:rgb(0%,0%,0%);stroke-opacity:1;stroke-miterlimit:10;" d="M 151.074219 246.796459 L 133.855632 236.851424 " transform="matrix(0.201681,0,0,0.200713,0,0)"/>
<path style="fill:none;stroke-width:0.7087;stroke-linecap:round;stroke-linejoin:round;stroke:rgb(0%,0%,0%);stroke-opacity:1;stroke-miterlimit:10;" d="M 133.855632 288.386557 L 152.526855 277.60466 " transform="matrix(0.201681,0,0,0.200713,0,0)"/>
<path style="fill:none;stroke-width:0.7087;stroke-linecap:round;stroke-linejoin:round;stroke:rgb(0%,0%,0%);stroke-opacity:1;stroke-miterlimit:10;" d="M 133.855632 236.851424 L 89.211263 262.61899 " transform="matrix(0.201681,0,0,0.200713,0,0)"/>
<path style="fill:none;stroke-width:0.7087;stroke-linecap:round;stroke-linejoin:round;stroke:rgb(0%,0%,0%);stroke-opacity:1;stroke-miterlimit:10;" d="M 133.855632 288.386557 L 133.855632 460.176821 " transform="matrix(0.201681,0,0,0.200713,0,0)"/>
<path style="fill:none;stroke-width:0.7087;stroke-linecap:round;stroke-linejoin:round;stroke:rgb(0%,0%,0%);stroke-opacity:1;stroke-miterlimit:10;" d="M 89.211263 262.61899 L 89.211263 434.409255 " transform="matrix(0.201681,0,0,0.200713,0,0)"/>
<path style="fill:none;stroke-width:0.7087;stroke-linecap:round;stroke-linejoin:round;stroke:rgb(0%,0%,0%);stroke-opacity:1;stroke-miterlimit:10;" d="M 178.480632 349.360716 L 178.480632 434.409255 " transform="matrix(0.201681,0,0,0.200713,0,0)"/>
</g>
</svg>
