<?xml version="1.0" encoding="UTF-8"?>
<svg xmlns="http://www.w3.org/2000/svg" xmlns:xlink="http://www.w3.org/1999/xlink" width="250pt" height="353pt" viewBox="0 0 250 353" version="1.1">
<g id="surface1">
<path style="fill:none;stroke-width:0.7087;stroke-linecap:round;stroke-linejoin:round;stroke:rgb(0%,0%,0%);stroke-opacity:1;stroke-miterlimit:10;" d="M 155.638984 302.193099 C 168.98 350.028926 205.535313 387.923026 252.865703 402.97072 " transform="matrix(0.420168,0,0,0.41924,0,0)"/>
<path style="fill:none;stroke-width:0.7087;stroke-linecap:round;stroke-linejoin:round;stroke:rgb(0%,0%,0%);stroke-opacity:1;stroke-miterlimit:10;" d="M 342.134297 402.97072 C 389.464687 387.923026 426.02 350.028926 439.361016 302.193099 " transform="matrix(0.420168,0,0,0.41924,0,0)"/>
<path style="fill:none;stroke-width:0.7087;stroke-linecap:round;stroke-linejoin:round;stroke:rgb(0%,0%,0%);stroke-opacity:1;stroke-miterlimit:10;" d="M 444.781094 262.621857 C 444.781094 181.280453 378.838359 115.340806 297.5 115.340806 C 216.161641 115.340806 150.218906 181.280453 150.218906 262.621857 " transform="matrix(0.420168,0,0,0.41924,0,0)"/>
<path style="fill:none;stroke-width:0.7087;stroke-linecap:round;stroke-linejoin:round;stroke:rgb(0%,0%,0%);stroke-opacity:1;stroke-miterlimit:10;" d="M 150.218906 262.621857 C 150.228203 267.699872 151.009141 272.749934 152.524531 277.604329 " transform="matrix(0.420168,0,0,0.41924,0,0)"/>
<path style="fill:none;stroke-width:0.7087;stroke-linecap:round;stroke-linejoin:round;stroke:rgb(0%,0%,0%);stroke-opacity:1;stroke-miterlimit:10;" d="M 152.524531 277.604329 C 152.431562 285.906184 153.482109 294.170768 155.638984 302.193099 " transform="matrix(0.420168,0,0,0.41924,0,0)"/>
<path style="fill:none;stroke-width:0.7087;stroke-linecap:round;stroke-linejoin:round;stroke:rgb(0%,0%,0%);stroke-opacity:1;stroke-miterlimit:10;" d="M 271.543125 346.311261 C 288.798125 348.090895 306.192578 348.090895 323.456875 346.311261 " transform="matrix(0.420168,0,0,0.41924,0,0)"/>
<path style="fill:none;stroke-width:0.7087;stroke-linecap:round;stroke-linejoin:round;stroke:rgb(0%,0%,0%);stroke-opacity:1;stroke-miterlimit:10;" d="M 442.475469 277.604329 C 443.990859 272.749934 444.771797 267.699872 444.781094 262.621857 " transform="matrix(0.420168,0,0,0.41924,0,0)"/>
<path style="fill:none;stroke-width:0.7087;stroke-linecap:round;stroke-linejoin:round;stroke:rgb(0%,0%,0%);stroke-opacity:1;stroke-miterlimit:10;" d="M 439.361016 302.193099 C 441.536484 294.180086 442.577734 285.906184 442.475469 277.604329 " transform="matrix(0.420168,0,0,0.41924,0,0)"/>
<path style="fill:none;stroke-width:0.7087;stroke-linecap:round;stroke-linejoin:round;stroke:rgb(0%,0%,0%);stroke-opacity:1;stroke-miterlimit:10;" d="M 297.5 657.719325 L 297.5 726.444892 " transform="matrix(0.420168,0,0,0.41924,0,0)"/>
<path style="fill:none;stroke-width:0.7087;stroke-linecap:round;stroke-linejoin:round;stroke:rgb(0%,0%,0%);stroke-opacity:1;stroke-miterlimit:10;" d="M 297.5 657.719325 L 595.046484 485.951996 " transform="matrix(0.420168,0,0,0.41924,0,0)"/>
<path style="fill:none;stroke-width:0.7087;stroke-linecap:round;stroke-linejoin:round;stroke:rgb(0%,0%,0%);stroke-opacity:1;stroke-miterlimit:10;" d="M 595.046484 485.951996 L 595.046484 554.668245 " transform="matrix(0.420168,0,0,0.41924,0,0)"/>
<path style="fill:none;stroke-width:0.7087;stroke-linecap:round;stroke-linejoin:round;stroke:rgb(0%,0%,0%);stroke-opacity:1;stroke-miterlimit:10;" d="M 297.5 726.444892 L 595.046484 554.668245 " transform="matrix(0.420168,0,0,0.41924,0,0)"/>
<path style="fill:none;stroke-width:0.7087;stroke-linecap:round;stroke-linejoin:round;stroke:rgb(0%,0%,0%);stroke-opacity:1;stroke-miterlimit:10;" d="M -0.0464844 485.951996 L -0.0464844 554.668245 " transform="matrix(0.420168,0,0,0.41924,0,0)"/>
<path style="fill:none;stroke-width:0.7087;stroke-linecap:round;stroke-linejoin:round;stroke:rgb(0%,0%,0%);stroke-opacity:1;stroke-miterlimit:10;" d="M -0.0464844 485.951996 L 297.5 657.719325 " transform="matrix(0.420168,0,0,0.41924,0,0)"/>
<path style="fill:none;stroke-width:0.7087;stroke-linecap:round;stroke-linejoin:round;stroke:rgb(0%,0%,0%);stroke-opacity:1;stroke-miterlimit:10;" d="M -0.0464844 554.668245 L 297.5 726.444892 " transform="matrix(0.420168,0,0,0.41924,0,0)"/>
<path style="fill:none;stroke-width:0.7087;stroke-linecap:round;stroke-linejoin:round;stroke:rgb(0%,0%,0%);stroke-opacity:1;stroke-miterlimit:10;" d="M 252.865703 528.896158 L 297.5 554.658928 " transform="matrix(0.420168,0,0,0.41924,0,0)"/>
<path style="fill:none;stroke-width:0.7087;stroke-linecap:round;stroke-linejoin:round;stroke:rgb(0%,0%,0%);stroke-opacity:1;stroke-miterlimit:10;" d="M 297.5 554.658928 L 342.134297 528.896158 " transform="matrix(0.420168,0,0,0.41924,0,0)"/>
<path style="fill:none;stroke-width:0.7087;stroke-linecap:round;stroke-linejoin:round;stroke:rgb(0%,0%,0%);stroke-opacity:1;stroke-miterlimit:10;" d="M 416.518594 382.891599 L 396.725547 371.459078 " transform="matrix(0.420168,0,0,0.41924,0,0)"/>
<path style="fill:none;stroke-width:0.7087;stroke-linecap:round;stroke-linejoin:round;stroke:rgb(0%,0%,0%);stroke-opacity:1;stroke-miterlimit:10;" d="M 416.518594 434.417139 L 461.152891 460.179909 " transform="matrix(0.420168,0,0,0.41924,0,0)"/>
<path style="fill:none;stroke-width:0.7087;stroke-linecap:round;stroke-linejoin:round;stroke:rgb(0%,0%,0%);stroke-opacity:1;stroke-miterlimit:10;" d="M 461.152891 460.179909 L 505.787187 434.417139 " transform="matrix(0.420168,0,0,0.41924,0,0)"/>
<path style="fill:none;stroke-width:0.7087;stroke-linecap:round;stroke-linejoin:round;stroke:rgb(0%,0%,0%);stroke-opacity:1;stroke-miterlimit:10;" d="M 595.046484 485.951996 L 505.787187 434.417139 " transform="matrix(0.420168,0,0,0.41924,0,0)"/>
<path style="fill:none;stroke-width:0.7087;stroke-linecap:round;stroke-linejoin:round;stroke:rgb(0%,0%,0%);stroke-opacity:1;stroke-miterlimit:10;" d="M 89.212812 434.417139 L -0.0464844 485.951996 " transform="matrix(0.420168,0,0,0.41924,0,0)"/>
<path style="fill:none;stroke-width:0.7087;stroke-linecap:round;stroke-linejoin:round;stroke:rgb(0%,0%,0%);stroke-opacity:1;stroke-miterlimit:10;" d="M 89.212812 434.417139 L 133.847109 460.179909 " transform="matrix(0.420168,0,0,0.41924,0,0)"/>
<path style="fill:none;stroke-width:0.7087;stroke-linecap:round;stroke-linejoin:round;stroke:rgb(0%,0%,0%);stroke-opacity:1;stroke-miterlimit:10;" d="M 133.847109 460.179909 L 178.481406 434.417139 " transform="matrix(0.420168,0,0,0.41924,0,0)"/>
<path style="fill:none;stroke-width:0.7087;stroke-linecap:round;stroke-linejoin:round;stroke:rgb(0%,0%,0%);stroke-opacity:1;stroke-miterlimit:10;" d="M 198.274453 371.459078 L 178.481406 382.891599 " transform="matrix(0.420168,0,0,0.41924,0,0)"/>
<path style="fill:none;stroke-width:0.7087;stroke-linecap:round;stroke-linejoin:round;stroke:rgb(0%,0%,0%);stroke-opacity:1;stroke-miterlimit:10;" d="M 297.5 382.863646 L 342.134297 357.091559 " transform="matrix(0.420168,0,0,0.41924,0,0)"/>
<path style="fill:none;stroke-width:0.7087;stroke-linecap:round;stroke-linejoin:round;stroke:rgb(0%,0%,0%);stroke-opacity:1;stroke-miterlimit:10;" d="M 252.865703 357.091559 L 297.5 382.863646 " transform="matrix(0.420168,0,0,0.41924,0,0)"/>
<path style="fill:none;stroke-width:0.7087;stroke-linecap:round;stroke-linejoin:round;stroke:rgb(0%,0%,0%);stroke-opacity:1;stroke-miterlimit:10;" d="M 271.543125 346.311261 L 252.865703 357.091559 " transform="matrix(0.420168,0,0,0.41924,0,0)"/>
<path style="fill:none;stroke-width:0.7087;stroke-linecap:round;stroke-linejoin:round;stroke:rgb(0%,0%,0%);stroke-opacity:1;stroke-miterlimit:10;" d="M 342.134297 357.091559 L 323.456875 346.311261 " transform="matrix(0.420168,0,0,0.41924,0,0)"/>
<path style="fill:none;stroke-width:0.7087;stroke-linecap:round;stroke-linejoin:round;stroke:rgb(0%,0%,0%);stroke-opacity:1;stroke-miterlimit:10;" d="M 252.865703 357.091559 L 252.865703 528.896158 " transform="matrix(0.420168,0,0,0.41924,0,0)"/>
<path style="fill:none;stroke-width:0.7087;stroke-linecap:round;stroke-linejoin:round;stroke:rgb(0%,0%,0%);stroke-opacity:1;stroke-miterlimit:10;" d="M 297.5 382.863646 L 297.5 554.658928 " transform="matrix(0.420168,0,0,0.41924,0,0)"/>
<path style="fill:none;stroke-width:0.7087;stroke-linecap:round;stroke-linejoin:round;stroke:rgb(0%,0%,0%);stroke-opacity:1;stroke-miterlimit:10;" d="M 342.134297 357.091559 L 342.134297 528.896158 " transform="matrix(0.420168,0,0,0.41924,0,0)"/>
<path style="fill:none;stroke-width:0.7087;stroke-linecap:round;stroke-linejoin:round;stroke:rgb(0%,0%,0%);stroke-opacity:1;stroke-miterlimit:10;" d="M 461.152891 288.384627 L 461.152891 460.179909 " transform="matrix(0.420168,0,0,0.41924,0,0)"/>
<path style="fill:none;stroke-width:0.7087;stroke-linecap:round;stroke-linejoin:round;stroke:rgb(0%,0%,0%);stroke-opacity:1;stroke-miterlimit:10;" d="M 416.518594 349.367387 L 416.518594 434.417139 " transform="matrix(0.420168,0,0,0.41924,0,0)"/>
<path style="fill:none;stroke-width:0.7087;stroke-linecap:round;stroke-linejoin:round;stroke:rgb(0%,0%,0%);stroke-opacity:1;stroke-miterlimit:10;" d="M 442.475469 277.604329 L 461.152891 288.384627 " transform="matrix(0.420168,0,0,0.41924,0,0)"/>
<path style="fill:none;stroke-width:0.7087;stroke-linecap:round;stroke-linejoin:round;stroke:rgb(0%,0%,0%);stroke-opacity:1;stroke-miterlimit:10;" d="M 461.152891 288.384627 L 505.787187 262.621857 " transform="matrix(0.420168,0,0,0.41924,0,0)"/>
<path style="fill:none;stroke-width:0.7087;stroke-linecap:round;stroke-linejoin:round;stroke:rgb(0%,0%,0%);stroke-opacity:1;stroke-miterlimit:10;" d="M 461.152891 236.84977 L 443.925781 246.800814 " transform="matrix(0.420168,0,0,0.41924,0,0)"/>
<path style="fill:none;stroke-width:0.7087;stroke-linecap:round;stroke-linejoin:round;stroke:rgb(0%,0%,0%);stroke-opacity:1;stroke-miterlimit:10;" d="M 505.787187 262.621857 L 461.152891 236.84977 " transform="matrix(0.420168,0,0,0.41924,0,0)"/>
<path style="fill:none;stroke-width:0.7087;stroke-linecap:round;stroke-linejoin:round;stroke:rgb(0%,0%,0%);stroke-opacity:1;stroke-miterlimit:10;" d="M 505.787187 262.621857 L 505.787187 434.417139 " transform="matrix(0.420168,0,0,0.41924,0,0)"/>
<path style="fill:none;stroke-width:0.7087;stroke-linecap:round;stroke-linejoin:round;stroke:rgb(0%,0%,0%);stroke-opacity:1;stroke-miterlimit:10;" d="M 89.212812 262.621857 L 133.847109 288.384627 " transform="matrix(0.420168,0,0,0.41924,0,0)"/>
<path style="fill:none;stroke-width:0.7087;stroke-linecap:round;stroke-linejoin:round;stroke:rgb(0%,0%,0%);stroke-opacity:1;stroke-miterlimit:10;" d="M 151.074219 246.800814 L 133.847109 236.84977 " transform="matrix(0.420168,0,0,0.41924,0,0)"/>
<path style="fill:none;stroke-width:0.7087;stroke-linecap:round;stroke-linejoin:round;stroke:rgb(0%,0%,0%);stroke-opacity:1;stroke-miterlimit:10;" d="M 133.847109 288.384627 L 152.524531 277.604329 " transform="matrix(0.420168,0,0,0.41924,0,0)"/>
<path style="fill:none;stroke-width:0.7087;stroke-linecap:round;stroke-linejoin:round;stroke:rgb(0%,0%,0%);stroke-opacity:1;stroke-miterlimit:10;" d="M 133.847109 236.84977 L 89.212812 262.621857 " transform="matrix(0.420168,0,0,0.41924,0,0)"/>
<path style="fill:none;stroke-width:0.7087;stroke-linecap:round;stroke-linejoin:round;stroke:rgb(0%,0%,0%);stroke-opacity:1;stroke-miterlimit:10;" d="M 133.847109 288.384627 L 133.847109 460.179909 " transform="matrix(0.420168,0,0,0.41924,0,0)"/>
<path style="fill:none;stroke-width:0.7087;stroke-linecap:round;stroke-linejoin:round;stroke:rgb(0%,0%,0%);stroke-opacity:1;stroke-miterlimit:10;" d="M 89.212812 262.621857 L 89.212812 434.417139 " transform="matrix(0.420168,0,0,0.41924,0,0)"/>
<path style="fill:none;stroke-width:0.7087;stroke-linecap:round;stroke-linejoin:round;stroke:rgb(0%,0%,0%);stroke-opacity:1;stroke-miterlimit:10;" d="M 178.481406 349.367387 L 178.481406 434.417139 " transform="matrix(0.420168,0,0,0.41924,0,0)"/>
</g>
</svg>
