<?xml version="1.0" encoding="UTF-8"?>
<svg xmlns="http://www.w3.org/2000/svg" xmlns:xlink="http://www.w3.org/1999/xlink" width="26pt" height="34pt" viewBox="0 0 26 34" version="1.1">
<g id="surface1">
<path style="fill:none;stroke-width:0.7087;stroke-linecap:round;stroke-linejoin:round;stroke:rgb(0%,0%,0%);stroke-opacity:1;stroke-miterlimit:10;" d="M 155.577959 302.189271 C 168.946537 350.03909 205.463394 388.05152 252.926335 402.950865 " transform="matrix(0.0435373,0,0,0.0408995,0,0)"/>
<path style="fill:none;stroke-width:0.7087;stroke-linecap:round;stroke-linejoin:round;stroke:rgb(0%,0%,0%);stroke-opacity:1;stroke-miterlimit:10;" d="M 342.110009 402.950865 C 389.483228 388.05152 426.000085 350.03909 439.368664 302.189271 " transform="matrix(0.0435373,0,0,0.0408995,0,0)"/>
<path style="fill:none;stroke-width:0.7087;stroke-linecap:round;stroke-linejoin:round;stroke:rgb(0%,0%,0%);stroke-opacity:1;stroke-miterlimit:10;" d="M 444.841706 262.648703 C 444.841706 181.275359 378.80631 115.374412 297.518172 115.374412 C 216.140313 115.374412 150.194638 181.275359 150.194638 262.648703 " transform="matrix(0.0435373,0,0,0.0408995,0,0)"/>
<path style="fill:none;stroke-width:0.7087;stroke-linecap:round;stroke-linejoin:round;stroke:rgb(0%,0%,0%);stroke-opacity:1;stroke-miterlimit:10;" d="M 150.194638 262.648703 C 150.194638 267.615151 150.912414 272.772617 152.437688 277.643556 " transform="matrix(0.0435373,0,0,0.0408995,0,0)"/>
<path style="fill:none;stroke-width:0.7087;stroke-linecap:round;stroke-linejoin:round;stroke:rgb(0%,0%,0%);stroke-opacity:1;stroke-miterlimit:10;" d="M 152.437688 277.643556 C 152.437688 285.857298 153.514352 294.166547 155.577959 302.189271 " transform="matrix(0.0435373,0,0,0.0408995,0,0)"/>
<path style="fill:none;stroke-width:0.7087;stroke-linecap:round;stroke-linejoin:round;stroke:rgb(0%,0%,0%);stroke-opacity:1;stroke-miterlimit:10;" d="M 271.588512 346.314254 C 288.815138 348.224426 306.131485 348.224426 323.35811 346.314254 " transform="matrix(0.0435373,0,0,0.0408995,0,0)"/>
<path style="fill:none;stroke-width:0.7087;stroke-linecap:round;stroke-linejoin:round;stroke:rgb(0%,0%,0%);stroke-opacity:1;stroke-miterlimit:10;" d="M 442.508934 277.643556 C 444.034208 272.772617 444.841706 267.615151 444.841706 262.648703 " transform="matrix(0.0435373,0,0,0.0408995,0,0)"/>
<path style="fill:none;stroke-width:0.7087;stroke-linecap:round;stroke-linejoin:round;stroke:rgb(0%,0%,0%);stroke-opacity:1;stroke-miterlimit:10;" d="M 439.368664 302.189271 C 441.43227 294.166547 442.508934 285.857298 442.508934 277.643556 " transform="matrix(0.0435373,0,0,0.0408995,0,0)"/>
<path style="fill:none;stroke-width:0.7087;stroke-linecap:round;stroke-linejoin:round;stroke:rgb(0%,0%,0%);stroke-opacity:1;stroke-miterlimit:10;" d="M 297.518172 657.767861 L 297.518172 726.438558 " transform="matrix(0.0435373,0,0,0.0408995,0,0)"/>
<path style="fill:none;stroke-width:0.7087;stroke-linecap:round;stroke-linejoin:round;stroke:rgb(0%,0%,0%);stroke-opacity:1;stroke-miterlimit:10;" d="M 297.518172 657.767861 L 595.126066 485.852346 " transform="matrix(0.0435373,0,0,0.0408995,0,0)"/>
<path style="fill:none;stroke-width:0.7087;stroke-linecap:round;stroke-linejoin:round;stroke:rgb(0%,0%,0%);stroke-opacity:1;stroke-miterlimit:10;" d="M 297.518172 726.438558 L 595.126066 554.618552 " transform="matrix(0.0435373,0,0,0.0408995,0,0)"/>
<path style="fill:none;stroke-width:0.7087;stroke-linecap:round;stroke-linejoin:round;stroke:rgb(0%,0%,0%);stroke-opacity:1;stroke-miterlimit:10;" d="M -0.179444 485.852346 L -0.179444 554.618552 " transform="matrix(0.0435373,0,0,0.0408995,0,0)"/>
<path style="fill:none;stroke-width:0.7087;stroke-linecap:round;stroke-linejoin:round;stroke:rgb(0%,0%,0%);stroke-opacity:1;stroke-miterlimit:10;" d="M -0.179444 485.852346 L 297.518172 657.767861 " transform="matrix(0.0435373,0,0,0.0408995,0,0)"/>
<path style="fill:none;stroke-width:0.7087;stroke-linecap:round;stroke-linejoin:round;stroke:rgb(0%,0%,0%);stroke-opacity:1;stroke-miterlimit:10;" d="M -0.179444 554.618552 L 297.518172 726.438558 " transform="matrix(0.0435373,0,0,0.0408995,0,0)"/>
<path style="fill:none;stroke-width:0.7087;stroke-linecap:round;stroke-linejoin:round;stroke:rgb(0%,0%,0%);stroke-opacity:1;stroke-miterlimit:10;" d="M 252.926335 529.022242 L 297.518172 554.618552 " transform="matrix(0.0435373,0,0,0.0408995,0,0)"/>
<path style="fill:none;stroke-width:0.7087;stroke-linecap:round;stroke-linejoin:round;stroke:rgb(0%,0%,0%);stroke-opacity:1;stroke-miterlimit:10;" d="M 297.518172 554.618552 L 342.110009 529.022242 " transform="matrix(0.0435373,0,0,0.0408995,0,0)"/>
<path style="fill:none;stroke-width:0.7087;stroke-linecap:round;stroke-linejoin:round;stroke:rgb(0%,0%,0%);stroke-opacity:1;stroke-miterlimit:10;" d="M 416.489552 382.894055 L 396.660989 371.43302 " transform="matrix(0.0435373,0,0,0.0408995,0,0)"/>
<path style="fill:none;stroke-width:0.7087;stroke-linecap:round;stroke-linejoin:round;stroke:rgb(0%,0%,0%);stroke-opacity:1;stroke-miterlimit:10;" d="M 416.489552 434.373201 L 461.171111 460.256036 " transform="matrix(0.0435373,0,0,0.0408995,0,0)"/>
<path style="fill:none;stroke-width:0.7087;stroke-linecap:round;stroke-linejoin:round;stroke:rgb(0%,0%,0%);stroke-opacity:1;stroke-miterlimit:10;" d="M 461.171111 460.256036 L 505.85267 434.373201 " transform="matrix(0.0435373,0,0,0.0408995,0,0)"/>
<path style="fill:none;stroke-width:0.7087;stroke-linecap:round;stroke-linejoin:round;stroke:rgb(0%,0%,0%);stroke-opacity:1;stroke-miterlimit:10;" d="M 595.126066 485.852346 L 505.85267 434.373201 " transform="matrix(0.0435373,0,0,0.0408995,0,0)"/>
<path style="fill:none;stroke-width:0.7087;stroke-linecap:round;stroke-linejoin:round;stroke:rgb(0%,0%,0%);stroke-opacity:1;stroke-miterlimit:10;" d="M 89.183674 434.373201 L -0.179444 485.852346 " transform="matrix(0.0435373,0,0,0.0408995,0,0)"/>
<path style="fill:none;stroke-width:0.7087;stroke-linecap:round;stroke-linejoin:round;stroke:rgb(0%,0%,0%);stroke-opacity:1;stroke-miterlimit:10;" d="M 89.183674 434.373201 L 133.865233 460.256036 " transform="matrix(0.0435373,0,0,0.0408995,0,0)"/>
<path style="fill:none;stroke-width:0.7087;stroke-linecap:round;stroke-linejoin:round;stroke:rgb(0%,0%,0%);stroke-opacity:1;stroke-miterlimit:10;" d="M 133.865233 460.256036 L 178.546792 434.373201 " transform="matrix(0.0435373,0,0,0.0408995,0,0)"/>
<path style="fill:none;stroke-width:0.7087;stroke-linecap:round;stroke-linejoin:round;stroke:rgb(0%,0%,0%);stroke-opacity:1;stroke-miterlimit:10;" d="M 198.375355 371.43302 L 178.546792 382.894055 " transform="matrix(0.0435373,0,0,0.0408995,0,0)"/>
<path style="fill:none;stroke-width:0.7087;stroke-linecap:round;stroke-linejoin:round;stroke:rgb(0%,0%,0%);stroke-opacity:1;stroke-miterlimit:10;" d="M 297.518172 382.894055 L 342.110009 357.011219 " transform="matrix(0.0435373,0,0,0.0408995,0,0)"/>
<path style="fill:none;stroke-width:0.7087;stroke-linecap:round;stroke-linejoin:round;stroke:rgb(0%,0%,0%);stroke-opacity:1;stroke-miterlimit:10;" d="M 252.926335 357.011219 L 297.518172 382.894055 " transform="matrix(0.0435373,0,0,0.0408995,0,0)"/>
<path style="fill:none;stroke-width:0.7087;stroke-linecap:round;stroke-linejoin:round;stroke:rgb(0%,0%,0%);stroke-opacity:1;stroke-miterlimit:10;" d="M 271.588512 346.314254 L 252.926335 357.011219 " transform="matrix(0.0435373,0,0,0.0408995,0,0)"/>
<path style="fill:none;stroke-width:0.7087;stroke-linecap:round;stroke-linejoin:round;stroke:rgb(0%,0%,0%);stroke-opacity:1;stroke-miterlimit:10;" d="M 342.110009 357.011219 L 323.35811 346.314254 " transform="matrix(0.0435373,0,0,0.0408995,0,0)"/>
<path style="fill:none;stroke-width:0.7087;stroke-linecap:round;stroke-linejoin:round;stroke:rgb(0%,0%,0%);stroke-opacity:1;stroke-miterlimit:10;" d="M 252.926335 357.011219 L 252.926335 529.022242 " transform="matrix(0.0435373,0,0,0.0408995,0,0)"/>
<path style="fill:none;stroke-width:0.7087;stroke-linecap:round;stroke-linejoin:round;stroke:rgb(0%,0%,0%);stroke-opacity:1;stroke-miterlimit:10;" d="M 297.518172 382.894055 L 297.518172 554.618552 " transform="matrix(0.0435373,0,0,0.0408995,0,0)"/>
<path style="fill:none;stroke-width:0.7087;stroke-linecap:round;stroke-linejoin:round;stroke:rgb(0%,0%,0%);stroke-opacity:1;stroke-miterlimit:10;" d="M 342.110009 357.011219 L 342.110009 529.022242 " transform="matrix(0.0435373,0,0,0.0408995,0,0)"/>
<path style="fill:none;stroke-width:0.7087;stroke-linecap:round;stroke-linejoin:round;stroke:rgb(0%,0%,0%);stroke-opacity:1;stroke-miterlimit:10;" d="M 461.171111 288.340522 L 461.171111 460.256036 " transform="matrix(0.0435373,0,0,0.0408995,0,0)"/>
<path style="fill:none;stroke-width:0.7087;stroke-linecap:round;stroke-linejoin:round;stroke:rgb(0%,0%,0%);stroke-opacity:1;stroke-miterlimit:10;" d="M 416.489552 349.370529 L 416.489552 434.373201 " transform="matrix(0.0435373,0,0,0.0408995,0,0)"/>
<path style="fill:none;stroke-width:0.7087;stroke-linecap:round;stroke-linejoin:round;stroke:rgb(0%,0%,0%);stroke-opacity:1;stroke-miterlimit:10;" d="M 442.508934 277.643556 L 461.171111 288.340522 " transform="matrix(0.0435373,0,0,0.0408995,0,0)"/>
<path style="fill:none;stroke-width:0.7087;stroke-linecap:round;stroke-linejoin:round;stroke:rgb(0%,0%,0%);stroke-opacity:1;stroke-miterlimit:10;" d="M 461.171111 288.340522 L 505.85267 262.648703 " transform="matrix(0.0435373,0,0,0.0408995,0,0)"/>
<path style="fill:none;stroke-width:0.7087;stroke-linecap:round;stroke-linejoin:round;stroke:rgb(0%,0%,0%);stroke-opacity:1;stroke-miterlimit:10;" d="M 461.171111 236.765867 L 443.944486 246.794272 " transform="matrix(0.0435373,0,0,0.0408995,0,0)"/>
<path style="fill:none;stroke-width:0.7087;stroke-linecap:round;stroke-linejoin:round;stroke:rgb(0%,0%,0%);stroke-opacity:1;stroke-miterlimit:10;" d="M 505.85267 262.648703 L 461.171111 236.765867 " transform="matrix(0.0435373,0,0,0.0408995,0,0)"/>
<path style="fill:none;stroke-width:0.7087;stroke-linecap:round;stroke-linejoin:round;stroke:rgb(0%,0%,0%);stroke-opacity:1;stroke-miterlimit:10;" d="M 505.85267 262.648703 L 505.85267 434.373201 " transform="matrix(0.0435373,0,0,0.0408995,0,0)"/>
<path style="fill:none;stroke-width:0.7087;stroke-linecap:round;stroke-linejoin:round;stroke:rgb(0%,0%,0%);stroke-opacity:1;stroke-miterlimit:10;" d="M 89.183674 262.648703 L 133.865233 288.340522 " transform="matrix(0.0435373,0,0,0.0408995,0,0)"/>
<path style="fill:none;stroke-width:0.7087;stroke-linecap:round;stroke-linejoin:round;stroke:rgb(0%,0%,0%);stroke-opacity:1;stroke-miterlimit:10;" d="M 151.091858 246.794272 L 133.865233 236.765867 " transform="matrix(0.0435373,0,0,0.0408995,0,0)"/>
<path style="fill:none;stroke-width:0.7087;stroke-linecap:round;stroke-linejoin:round;stroke:rgb(0%,0%,0%);stroke-opacity:1;stroke-miterlimit:10;" d="M 133.865233 288.340522 L 152.437688 277.643556 " transform="matrix(0.0435373,0,0,0.0408995,0,0)"/>
<path style="fill:none;stroke-width:0.7087;stroke-linecap:round;stroke-linejoin:round;stroke:rgb(0%,0%,0%);stroke-opacity:1;stroke-miterlimit:10;" d="M 133.865233 236.765867 L 89.183674 262.648703 " transform="matrix(0.0435373,0,0,0.0408995,0,0)"/>
<path style="fill:none;stroke-width:0.7087;stroke-linecap:round;stroke-linejoin:round;stroke:rgb(0%,0%,0%);stroke-opacity:1;stroke-miterlimit:10;" d="M 133.865233 288.340522 L 133.865233 460.256036 " transform="matrix(0.0435373,0,0,0.0408995,0,0)"/>
<path style="fill:none;stroke-width:0.7087;stroke-linecap:round;stroke-linejoin:round;stroke:rgb(0%,0%,0%);stroke-opacity:1;stroke-miterlimit:10;" d="M 89.183674 262.648703 L 89.183674 434.373201 " transform="matrix(0.0435373,0,0,0.0408995,0,0)"/>
<path style="fill:none;stroke-width:0.7087;stroke-linecap:round;stroke-linejoin:round;stroke:rgb(0%,0%,0%);stroke-opacity:1;stroke-miterlimit:10;" d="M 178.546792 349.370529 L 178.546792 434.373201 " transform="matrix(0.0435373,0,0,0.0408995,0,0)"/>
</g>
</svg>
