<?xml version="1.0" encoding="UTF-8"?>
<svg xmlns="http://www.w3.org/2000/svg" xmlns:xlink="http://www.w3.org/1999/xlink" width="120pt" height="120pt" viewBox="0 0 120 120" version="1.1">
<g id="surface1">
<path style=" stroke:none;fill-rule:nonzero;fill:rgb(0%,0%,0%);fill-opacity:1;" d="M 3.769531 33.816406 C 10.953125 33.347656 17.386719 37.34375 24.417969 35.53125 C 25.558594 35.230469 31.445312 38.855469 26.171875 42.78125 C 23.75 44.578125 23.269531 46.855469 22.761719 49.835938 C 21.925781 54.730469 25.539062 61.703125 17.367188 64.027344 C 15.765625 64.484375 17.292969 65.816406 17.707031 66.613281 C 19.601562 70.207031 19.335938 73.527344 19.074219 77.667969 C 18.769531 82.546875 17.679688 86.589844 16.113281 90.929688 C 15.578125 92.441406 15.496094 95.742188 17.976562 95.769531 C 25.207031 95.839844 26.695312 101.386719 29.445312 106.1875 C 31.335938 109.484375 34.480469 113.667969 38.539062 109.617188 C 44.28125 103.878906 50.65625 100.433594 58.503906 102.347656 C 71.703125 105.570312 75.78125 91.269531 85.914062 88.925781 C 83.113281 80.753906 99.792969 76.28125 90.035156 66.496094 C 88.023438 64.472656 90.269531 60.949219 91.886719 58.792969 C 97.1875 51.6875 99.238281 41.652344 110.335938 39.664062 C 113.433594 39.109375 115.867188 35.230469 118.78125 33.113281 C 121.652344 31.015625 121.21875 28.136719 120.621094 25.496094 C 119.769531 21.613281 116.925781 23.910156 114.675781 23.867188 C 110.101562 23.8125 105.308594 24.921875 101.292969 21.121094 C 100.1875 20.0625 97.199219 19.695312 95.855469 20.433594 C 88.78125 24.355469 82.824219 20 77.015625 17.652344 C 74.25 16.53125 71.792969 15.632812 68.792969 15.046875 C 57.246094 12.769531 45.519531 14.46875 33.851562 13.222656 C 24.695312 12.238281 15.65625 9.34375 6.164062 9.828125 C 0.527344 10.101562 0.0117188 12.050781 0 16.714844 C -0.0117188 22.988281 5.890625 27.667969 3.769531 33.816406 Z M 3.769531 33.816406 "/>
</g>
</svg>
